<?xml version="1.0" encoding="UTF-8"?><svg xmlns="http://www.w3.org/2000/svg" xmlns:xlink="http://www.w3.org/1999/xlink" fill-opacity="1" color-rendering="auto" color-interpolation="auto" text-rendering="auto" stroke="black" stroke-linecap="square" width="281" stroke-miterlimit="10" shape-rendering="auto" stroke-opacity="1" fill="black" stroke-dasharray="none" font-weight="normal" stroke-width="1" height="313" font-family="'Dialog'" font-style="normal" stroke-linejoin="miter" font-size="12px" stroke-dashoffset="0" image-rendering="auto">
  <!--Generated by ySVG 2.5-->
  <defs id="genericDefs"/>
  <g>
    <defs id="defs1">
      <clipPath clipPathUnits="userSpaceOnUse" id="clipPath1">
        <path d="M0 0 L281 0 L281 313 L0 313 L0 0 Z"/>
      </clipPath>
      <clipPath clipPathUnits="userSpaceOnUse" id="clipPath2">
        <path d="M193 -10 L474 -10 L474 303 L193 303 L193 -10 Z"/>
      </clipPath>
    </defs>
    <g fill="white" text-rendering="geometricPrecision" shape-rendering="geometricPrecision" transform="translate(-193,10)" stroke="white">
      <rect x="193" width="281" height="313" y="-10" clip-path="url(#clipPath2)" stroke="none"/>
    </g>
    <g text-rendering="geometricPrecision" stroke-miterlimit="1.45" shape-rendering="geometricPrecision" font-family="sans-serif" transform="matrix(1,0,0,1,-193,10)" stroke-linecap="butt">
      <text x="300.9893" xml:space="preserve" y="247.5127" clip-path="url(#clipPath2)" stroke="none">Template</text>
      <text x="324.333" xml:space="preserve" y="262.2139" clip-path="url(#clipPath2)" stroke="none"> </text>
      <text x="310.6572" xml:space="preserve" y="276.915" clip-path="url(#clipPath2)" stroke="none">&lt;... /&gt;</text>
      <rect x="253" y="227" clip-path="url(#clipPath2)" fill="none" width="146" rx="4" ry="4" height="61"/>
      <text x="291.9746" xml:space="preserve" y="118.9127" clip-path="url(#clipPath2)" stroke="none">Komponente</text>
      <text x="324.333" xml:space="preserve" y="133.6139" clip-path="url(#clipPath2)" stroke="none"> </text>
      <text x="272.3135" xml:space="preserve" y="148.315" clip-path="url(#clipPath2)" stroke="none">class HelloWorld  { }</text>
      <rect x="253" y="98.4" clip-path="url(#clipPath2)" fill="none" width="146" rx="4" ry="4" height="61"/>
    </g>
    <g text-rendering="geometricPrecision" stroke-miterlimit="1.45" shape-rendering="geometricPrecision" transform="matrix(1,0,0,1,-193,10)" stroke-linecap="butt">
      <path fill="none" d="M263.375 48.46 C242.5 25.5 263.375 5 297.61 19.76 C297.61 5 354.39 5 354.39 19.76 C388.625 5 409.5 25.5 388.625 43.54 C409.5 66.5 388.625 87 362.74 72.24 C354.39 87 297.61 87 305.96 72.24 C263.375 87 242.5 66.5 263.375 48.46 Z" clip-path="url(#clipPath2)"/>
      <text x="297.6465" xml:space="preserve" y="36.0127" clip-path="url(#clipPath2)" font-family="sans-serif" stroke="none">Metadaten</text>
      <text x="324.333" xml:space="preserve" y="50.7139" clip-path="url(#clipPath2)" font-family="sans-serif" stroke="none"> </text>
      <text x="279.2188" xml:space="preserve" y="65.415" clip-path="url(#clipPath2)" font-family="sans-serif" stroke="none">@Component({ })</text>
    </g>
    <g text-rendering="geometricPrecision" stroke-miterlimit="1.45" shape-rendering="geometricPrecision" transform="matrix(1,0,0,1,-193,10)" stroke-linecap="butt">
      <path fill="none" d="M302.9275 227.014 L301.8875 225.35 L295.8594 209.275 L293.85 193.2 L295.8594 177.125 L299.7571 166.731 L299.8102 166.6462" clip-path="url(#clipPath2)"/>
      <path d="M302.9665 159.2952 L293.6376 168.3489 L299.4156 167.565 L302.8264 172.2944 Z" clip-path="url(#clipPath2)" stroke="none"/>
      <text x="210.8739" xml:space="preserve" y="198.9304" clip-path="url(#clipPath2)" font-family="sans-serif" stroke="none">Event Binding</text>
      <path fill="none" d="M349.0725 159.386 L350.1125 161.05 L356.1406 177.125 L358.15 193.2 L356.1406 209.275 L352.2429 219.669 L352.1898 219.7538" clip-path="url(#clipPath2)"/>
      <path d="M349.0335 227.1048 L358.3624 218.0511 L352.5844 218.835 L349.1736 214.1056 Z" clip-path="url(#clipPath2)" stroke="none"/>
      <text x="367.6244" xml:space="preserve" y="195.4975" clip-path="url(#clipPath2)" font-family="sans-serif" stroke="none">Property Binding</text>
    </g>
  </g>
</svg>
