<?xml version="1.0" encoding="utf-8"?>
<!-- Generator: Adobe Illustrator 16.0.0, SVG Export Plug-In . SVG Version: 6.00 Build 0)  -->
<!DOCTYPE svg PUBLIC "-//W3C//DTD SVG 1.1//EN" "http://www.w3.org/Graphics/SVG/1.1/DTD/svg11.dtd">
<svg version="1.1" id="Layer_1" xmlns="http://www.w3.org/2000/svg" xmlns:xlink="http://www.w3.org/1999/xlink" x="0px" y="0px"
	 width="220.75px" height="65px" viewBox="0 37.722 220.75 65" enable-background="new 0 37.722 220.75 65" xml:space="preserve">
<rect x="-43.5" y="37.005" display="none" fill="#E7E7E7" width="792" height="612"/>
<g>
	<path fill="#007ACC" d="M30.023,50.414H19.265V83.74h-4.37V50.414H4.158v-3.956h25.865V50.414z"/>
	<path fill="#007ACC" d="M47,57.12L34.755,87.999c-2.181,5.509-5.25,8.268-9.206,8.268c-1.109,0-2.034-0.11-2.781-0.34v-3.823
		c0.917,0.312,1.76,0.467,2.521,0.467c2.152,0,3.764-1.28,4.835-3.846l2.13-5.044L21.86,57.12h4.732l7.202,20.483
		c0.089,0.258,0.267,0.938,0.547,2.024h0.156c0.089-0.414,0.259-1.071,0.517-1.974l7.565-20.535L47,57.12L47,57.12z"/>
	<path fill="#007ACC" d="M53.972,79.895h-0.103v16.09h-4.267V57.12h4.267v4.681h0.103c2.101-3.534,5.162-5.302,9.206-5.302
		c3.431,0,6.108,1.19,8.03,3.572c1.922,2.381,2.884,5.575,2.884,9.583c0,4.451-1.08,8.021-3.246,10.699
		c-2.167,2.676-5.132,4.016-8.888,4.016C58.505,84.361,55.844,82.875,53.972,79.895z M53.869,69.158v3.721
		c0,2.201,0.717,4.066,2.144,5.604c1.428,1.538,3.247,2.299,5.45,2.299c2.58,0,4.606-0.99,6.07-2.965
		c1.464-1.974,2.196-4.725,2.196-8.236c0-2.965-0.688-5.287-2.056-6.965c-1.368-1.679-3.224-2.522-5.561-2.522
		c-2.477,0-4.473,0.865-5.981,2.59C54.624,64.396,53.869,66.556,53.869,69.158z"/>
	<path fill="#007ACC" d="M99.957,71.495H81.161c0.067,2.966,0.865,5.251,2.389,6.862c1.522,1.611,3.623,2.416,6.292,2.416
		c2.994,0,5.752-0.988,8.267-2.964v4.001c-2.337,1.699-5.435,2.551-9.28,2.551c-3.764,0-6.714-1.205-8.866-3.624
		c-2.151-2.417-3.224-5.818-3.224-10.204c0-4.141,1.176-7.519,3.52-10.122c2.352-2.61,5.265-3.912,8.747-3.912
		s6.174,1.124,8.082,3.379c1.908,2.255,2.862,5.383,2.862,9.383v2.233L99.957,71.495L99.957,71.495z M95.587,67.879
		c-0.015-2.461-0.614-4.377-1.782-5.745c-1.168-1.367-2.795-2.056-4.873-2.056c-2.011,0-3.719,0.717-5.124,2.16
		c-1.405,1.441-2.27,3.32-2.603,5.641H95.587z"/>
	<path fill="#007ACC" d="M103.684,82.231v-5.146c0.54,0.52,1.183,0.991,1.938,1.405c0.754,0.413,1.545,0.77,2.38,1.05
		c0.836,0.28,1.672,0.51,2.508,0.665c0.842,0.156,1.619,0.237,2.328,0.237c2.455,0,4.296-0.495,5.51-1.494
		c1.213-0.997,1.818-2.432,1.818-4.304c0-1.005-0.199-1.879-0.605-2.624c-0.408-0.747-0.963-1.428-1.68-2.042
		c-0.717-0.613-1.561-1.205-2.535-1.768c-0.977-0.562-2.025-1.152-3.15-1.78c-1.19-0.659-2.299-1.324-3.327-2.005
		c-1.027-0.673-1.93-1.42-2.684-2.232c-0.762-0.814-1.361-1.738-1.797-2.766c-0.436-1.027-0.65-2.24-0.65-3.623
		c0-1.7,0.34-3.173,1.02-4.43c0.68-1.256,1.575-2.292,2.691-3.104c1.109-0.813,2.374-1.419,3.793-1.819
		c1.419-0.4,2.868-0.599,4.341-0.599c3.363,0,5.813,0.443,7.35,1.323v4.909c-2.012-1.522-4.6-2.284-7.757-2.284
		c-0.872,0-1.745,0.104-2.618,0.297c-0.871,0.198-1.647,0.523-2.328,0.976c-0.681,0.451-1.235,1.028-1.664,1.745
		c-0.429,0.709-0.643,1.575-0.643,2.603c0,0.954,0.162,1.774,0.487,2.47c0.325,0.694,0.806,1.323,1.442,1.899
		c0.636,0.569,1.404,1.124,2.321,1.664c0.909,0.54,1.959,1.124,3.15,1.768c1.22,0.657,2.38,1.353,3.475,2.077
		c1.094,0.726,2.057,1.531,2.877,2.417c0.82,0.888,1.479,1.864,1.959,2.937s0.725,2.307,0.725,3.688
		c0,1.834-0.332,3.395-0.982,4.666c-0.658,1.271-1.546,2.308-2.662,3.105c-1.115,0.798-2.402,1.375-3.867,1.729
		c-1.455,0.354-2.994,0.533-4.613,0.533c-0.539,0-1.205-0.045-1.997-0.143c-0.791-0.096-1.604-0.235-2.425-0.412
		c-0.829-0.187-1.605-0.407-2.344-0.674C104.719,82.86,104.134,82.556,103.684,82.231z"/>
	<path fill="#007ACC" d="M147.05,82.519c-2.048,1.229-4.474,1.85-7.274,1.85c-3.793,0-6.862-1.234-9.191-3.705
		c-2.329-2.47-3.497-5.672-3.497-9.604c0-4.386,1.257-7.904,3.771-10.566c2.516-2.662,5.863-3.993,10.063-3.993
		c2.337,0,4.399,0.437,6.188,1.301v4.37c-1.975-1.39-4.09-2.078-6.344-2.078c-2.722,0-4.955,0.978-6.691,2.93
		c-1.738,1.952-2.61,4.51-2.61,7.682c0,3.121,0.821,5.584,2.455,7.381s3.838,2.705,6.589,2.705c2.321,0,4.502-0.769,6.551-2.313
		v4.045h-0.009V82.519z"/>
	<path fill="#007ACC" d="M163.547,61.432c-0.747-0.57-1.818-0.858-3.225-0.858c-1.818,0-3.342,0.858-4.563,2.573
		c-1.221,1.716-1.834,4.052-1.834,7.017v13.568h-4.267V57.114h4.267V62.6h0.104c0.607-1.871,1.531-3.335,2.779-4.378
		c1.252-1.051,2.642-1.575,4.187-1.575c1.108,0,1.96,0.119,2.552,0.361V61.432L163.547,61.432z"/>
	<path fill="#007ACC" d="M168.441,50.362c-0.762,0-1.412-0.259-1.951-0.776s-0.807-1.175-0.807-1.974
		c0-0.798,0.268-1.457,0.807-1.989c0.539-0.524,1.189-0.791,1.951-0.791c0.776,0,1.441,0.267,1.99,0.791
		c0.547,0.533,0.819,1.191,0.819,1.989c0,0.761-0.272,1.413-0.819,1.953C169.883,50.089,169.218,50.362,168.441,50.362z
		 M170.52,83.74h-4.267V57.12h4.267V83.74z"/>
	<path fill="#007ACC" d="M177.396,79.895h-0.104v16.09h-4.267V57.12h4.267v4.681h0.104c2.101-3.534,5.16-5.302,9.205-5.302
		c3.433,0,6.107,1.19,8.03,3.572c1.923,2.381,2.884,5.575,2.884,9.583c0,4.451-1.08,8.021-3.246,10.699
		c-2.166,2.676-5.131,4.016-8.889,4.016C181.93,84.361,179.268,82.875,177.396,79.895z M177.292,69.158v3.721
		c0,2.201,0.717,4.066,2.146,5.604c1.426,1.538,3.246,2.299,5.449,2.299c2.58,0,4.606-0.99,6.07-2.965
		c1.464-1.974,2.195-4.725,2.195-8.236c0-2.965-0.688-5.287-2.057-6.965c-1.367-1.679-3.224-2.522-5.56-2.522
		c-2.478,0-4.474,0.865-5.981,2.59C178.046,64.396,177.292,66.556,177.292,69.158z"/>
	<path fill="#007ACC" d="M213.479,83.481c-1.004,0.555-2.328,0.829-3.978,0.829c-4.658,0-6.995-2.604-6.995-7.803v-15.75h-4.576
		V57.12h4.576v-6.5l4.268-1.375v7.875h6.705v3.638h-6.705v14.995c0,1.783,0.304,3.063,0.91,3.822
		c0.605,0.762,1.611,1.146,3.017,1.146c1.071,0,2.004-0.296,2.778-0.888V83.481L213.479,83.481z"/>
</g>
</svg>
